<svg width="86" height="96" viewBox="0 0 86 96" fill="none" xmlns="http://www.w3.org/2000/svg">
<path d="M42.8828 96C37.2589 96 32.8065 91.7854 32.8065 84.9951C32.8065 76.0976 39.1335 70.9463 41.2425 58.7707C42.1798 54.322 38.1962 52.4488 34.6812 55.2585C25.0736 62.9854 23.6676 70.7122 15.9346 75.3951C13.8256 76.5659 11.951 77.0341 9.84196 77.0341C6.32698 77.0341 3.04632 75.161 1.17166 72.1171C0.468665 70.4781 0 68.839 0 66.9659C0 63.4537 1.87466 60.1756 5.85831 57.8342C13.3569 53.6195 21.0899 56.1951 33.0409 52.2146C37.4932 50.8098 37.2589 46.1268 32.8065 44.4878C21.0899 40.039 13.5913 42.6146 5.85831 38.4C1.87466 36.0585 0 32.5463 0 29.0341C0 27.3951 0.468665 25.522 1.17166 24.1171C3.04632 21.0732 6.32698 18.9659 9.84196 18.9659C11.951 18.9659 13.8256 19.4341 15.9346 20.839C23.6676 25.2878 25.0736 33.2488 34.6812 41.6781C37.9618 44.4878 42.4142 42.3805 41.4768 37.6976C39.1335 25.2878 32.8065 20.1366 32.8065 11.0049C32.8065 4.21464 37.2589 0 42.8828 0C48.5068 0 52.9591 4.21464 52.9591 11.0049C52.9591 20.1366 46.8665 25.2878 44.9918 37.6976C44.0545 42.1463 48.0381 44.4878 51.3188 41.6781C60.9264 33.4829 62.3324 25.2878 69.8311 20.839C71.9401 19.4341 74.049 18.9659 75.9237 18.9659C79.673 18.9659 82.7193 21.0732 84.594 24.1171C85.5313 25.522 86 27.3951 86 29.0341C86 32.5463 83.891 36.0585 79.9074 38.4C72.4087 42.6146 64.6757 40.039 53.1935 44.4878C48.5068 46.1268 48.5068 50.8098 52.9591 52.2146C64.6757 56.1951 72.6431 53.6195 79.9074 57.8342C83.891 60.1756 86 63.4537 86 66.9659C86 68.839 85.5313 70.4781 84.594 72.1171C82.7193 75.161 79.673 77.0341 75.9237 77.0341C74.049 77.0341 71.9401 76.5659 69.8311 75.3951C62.3324 70.9463 60.9264 62.9854 51.3188 55.2585C47.8038 52.4488 44.0545 54.322 44.9918 58.7707C46.8665 70.9463 52.9591 76.3317 52.9591 84.9951C52.9591 91.7854 48.5068 96 42.8828 96Z" fill="#9747FF"/>
</svg>
