<svg width="273" height="248" viewBox="0 0 273 248" fill="none" xmlns="http://www.w3.org/2000/svg">
<path d="M124.23 9.05864C128.292 -2.54876 144.708 -2.54876 148.77 9.05863L172.631 77.2337C174.456 82.4479 179.377 85.9392 184.901 85.9392L259.938 85.9392C272.764 85.9392 277.84 102.545 267.207 109.717L208.204 149.514C203.306 152.818 201.252 159.01 203.203 164.586L226.125 230.079C230.258 241.888 216.958 252.147 206.586 245.151L143.769 202.782C139.376 199.818 133.624 199.818 129.231 202.782L66.4143 245.151C56.0418 252.147 42.7416 241.888 46.8747 230.079L69.7966 164.586C71.7484 159.01 69.6941 152.818 64.7958 149.514L5.79281 109.717C-4.84051 102.545 0.236222 85.9392 13.0623 85.9392L88.099 85.9392C93.6233 85.9392 98.5443 82.4479 100.369 77.2337L124.23 9.05864Z" fill="#5546FB"/>
</svg>
