<svg width="220" height="36" viewBox="0 0 220 36" fill="none" xmlns="http://www.w3.org/2000/svg">
<path d="M21.7719 18.5161C23.4865 18.6477 24.9771 19.3681 26.2508 20.6704C27.5175 21.9796 28.1543 23.7737 28.1543 26.0596C28.1543 28.8651 27.2166 31.1026 25.334 32.772C23.4515 34.4345 20.7501 35.2727 17.2159 35.2727H0V2.45218H17.1739C20.2112 2.45218 22.6397 3.26958 24.4732 4.90437C26.3068 6.53916 27.2166 8.70733 27.2166 11.4158C27.2166 13.4732 26.6427 15.1079 25.488 16.3133C24.3332 17.5186 23.0945 18.1905 21.7789 18.3221V18.5161H21.7719ZM8.16707 16.0154H15.2914C16.5091 16.0154 17.4819 15.6829 18.2097 15.011C18.9375 14.339 19.3014 13.4524 19.3014 12.344C19.3014 11.3327 18.9445 10.5153 18.2377 9.89186C17.5309 9.26842 16.6491 8.96363 15.5923 8.96363H8.16707V16.0154ZM15.7883 28.7543C17.076 28.7543 18.0697 28.4287 18.7836 27.7776C19.4904 27.1264 19.8473 26.2259 19.8473 25.0829C19.8473 24.0023 19.4834 23.1503 18.7556 22.513C18.0277 21.8757 17.09 21.5571 15.9352 21.5571H8.16707V28.7543H15.7883ZM56.5046 35.2657H48.5895V32.9175C46.609 34.9748 44.0686 36 40.9683 36C38.064 36 35.7336 35.0579 33.963 33.1807C32.1994 31.3034 31.3176 28.8305 31.3176 25.7618V10.6815H39.1837V24.0993C39.1837 25.5332 39.5826 26.7039 40.3735 27.6044C41.1643 28.5049 42.186 28.9482 43.4387 28.9482C45.0554 28.9482 46.3151 28.3871 47.2248 27.258C48.1346 26.1289 48.5825 24.411 48.5825 22.0904V10.6815H56.4976V35.2657H56.5046ZM80.8869 35.2657H59.9268V33.7903L69.7805 16.9021H60.1718V10.6815H80.7679V12.157L70.9142 29.0452H80.8869V35.2657ZM105.269 35.2657H84.3091V33.7903L94.1628 16.9021H84.547V10.6815H105.143V12.157L95.2895 29.0452H105.262V35.2657H105.269ZM117.04 16.4587H131.359V23.5105H117.04V35.2657H108.873V2.45218H132.675V9.55243H117.04V16.4587ZM189.368 24.979H171.159C171.627 28.0269 173.93 29.731 177.415 29.731C180.158 29.731 182.867 28.6642 184.896 27.1195L187.934 32.3286C185.155 34.6908 181.551 36 177.415 36C169.087 36 163.39 30.9779 163.39 22.9702C163.39 19.1811 164.664 16.0639 167.197 13.6117C169.738 11.1595 172.852 9.94035 176.547 9.94035C180.144 9.94035 183.161 11.1318 185.603 13.5147C188.046 15.8976 189.298 19.0495 189.361 22.9702V24.979H189.368ZM173.335 17.3385C172.348 18.0242 171.669 18.9733 171.306 20.1786H181.551C181.187 18.904 180.564 17.9411 179.669 17.29C178.78 16.6388 177.737 16.3133 176.554 16.3133C175.4 16.3133 174.329 16.6527 173.335 17.3385ZM160.416 24.979H142.206C142.675 28.0269 144.978 29.731 148.463 29.731C151.206 29.731 153.915 28.6642 155.944 27.1195L158.981 32.3286C156.203 34.6908 152.599 36 148.463 36C140.135 36 134.438 30.9779 134.438 22.9702C134.438 19.1811 135.712 16.0639 138.245 13.6117C140.786 11.1595 143.9 9.94035 147.595 9.94035C151.192 9.94035 154.209 11.1318 156.651 13.5147C159.093 15.8976 160.346 19.0495 160.409 22.9702V24.979H160.416ZM144.383 17.3385C143.396 18.0242 142.717 18.9733 142.353 20.1786H152.599C152.235 18.904 151.612 17.9411 150.716 17.29C149.828 16.6388 148.785 16.3133 147.602 16.3133C146.44 16.3133 145.37 16.6527 144.383 17.3385ZM220 35.2657H212.085V33.3054C210.069 35.0995 207.501 36 204.366 36C201 36 198.137 34.7808 195.779 32.3494C193.42 29.918 192.238 26.787 192.238 22.9702C192.238 19.1811 193.42 16.0639 195.779 13.6117C198.137 11.1595 201 9.94035 204.366 9.94035C207.501 9.94035 210.076 10.8409 212.085 12.635V0H220V35.2657ZM210.279 27.5559C211.483 26.3644 212.085 24.8405 212.085 22.9771C212.085 21.1484 211.483 19.6313 210.279 18.4191C209.076 17.2138 207.648 16.6042 205.996 16.6042C204.247 16.6042 202.812 17.1999 201.692 18.3914C200.573 19.5828 200.013 21.1068 200.013 22.9702C200.013 24.8613 200.573 26.3991 201.692 27.5767C202.812 28.7543 204.247 29.3431 205.996 29.3431C207.648 29.3431 209.076 28.7474 210.279 27.5559Z" fill="white"/>
</svg>
