<svg width="75" height="44" viewBox="0 0 75 44" fill="none" xmlns="http://www.w3.org/2000/svg">
<path fill-rule="evenodd" clip-rule="evenodd" d="M59.4503 8.94889C58.1709 13.7407 56.8972 18.5339 55.6495 23.3343C55.0255 25.7341 54.413 28.1356 53.6946 30.5102C52.9969 32.8174 52.1399 35.2799 50.8909 37.3753C49.5881 39.5621 47.9011 41.2696 45.5664 42.3628C44.6329 42.7995 43.6765 43.0991 42.673 43.3136C41.2491 43.6176 39.8188 43.7427 38.372 43.8252C34.789 44.0287 27.188 43.9984 23.606 43.9984L25.802 35.7953C27.4643 35.7953 29.1263 35.8011 30.7883 35.7548C32.3921 35.7098 34.1568 35.6232 35.7363 35.2468C37.4659 34.8344 38.7711 34.1267 39.9142 32.7083C40.9556 31.4163 41.6557 29.8043 42.2293 28.2839C43.2771 25.5074 44.3499 21.532 45.1061 18.673C45.9614 15.4366 46.7836 12.1921 47.6122 8.94889H59.4503ZM74.248 8.94882L67.8599 32.8125H56.0222L62.41 8.94882H74.248ZM35.2094 0H47.0475C45.8073 4.6582 44.5687 9.31674 43.3143 13.9712C42.44 17.2137 41.5719 20.4576 40.6228 23.6793C40.2089 25.0837 39.7956 26.4841 39.2531 27.8476C38.8171 28.9429 38.3298 29.9175 37.4288 30.7359C36.7557 31.3472 36.0218 31.7272 35.1671 31.9982C34.0676 32.347 32.9563 32.4748 31.8202 32.5685C30.1863 32.7035 28.5521 32.738 26.9155 32.7646C23.1515 32.8256 16.3163 32.817 12.5523 32.8007C11.1998 32.7945 9.8473 32.7864 8.49479 32.7615C7.51431 32.7438 6.53485 32.7192 5.55573 32.6575C4.90197 32.6159 4.25328 32.5607 3.6073 32.4407C3.16897 32.3596 2.74689 32.2505 2.33562 32.0695C0.981085 31.4729 0.290796 30.2805 0.250549 28.8283C0.227212 27.9973 0.370614 27.2057 0.535661 26.4019C0.770041 25.2634 1.06192 24.1405 1.35109 23.0162C1.90305 20.8683 2.91329 16.9052 3.70064 14.819C4.31754 13.1841 5.13229 11.557 6.68028 10.5221C7.54577 9.94363 8.45522 9.63615 9.45801 9.43264C10.2014 9.28197 10.9485 9.2022 11.7024 9.14562C12.9649 9.05119 14.2285 9.02153 15.4934 8.99904C17.291 8.96733 19.0886 8.96052 20.8862 8.95506L25.3703 8.94893H29.8542L28.2572 14.9148C25.592 14.9148 22.9276 14.9073 20.2625 14.9229C19.4846 14.9277 18.7078 14.9219 17.9305 14.9731C17.6546 14.9911 17.385 15.0092 17.1182 15.1033C16.7671 15.226 16.5936 15.4482 16.4394 15.7673C16.2138 16.2343 16.0836 16.7269 15.9398 17.2198C15.7203 17.9725 15.5171 18.7296 15.3135 19.4871C14.9999 20.6539 14.6864 21.8208 14.3888 22.992C14.2789 23.4257 14.171 23.8593 14.0783 24.297C14.013 24.6038 13.9542 24.9095 13.9251 25.2225C13.8933 25.5647 13.8835 25.9758 14.0891 26.2935C14.2982 26.616 14.6516 26.691 14.9813 26.7391C15.3541 26.7939 15.7274 26.8059 16.1022 26.8171C16.7157 26.8359 17.3292 26.8386 17.9427 26.8417C19.6213 26.8498 21.2998 26.8502 22.9784 26.8396C23.7518 26.8348 24.5247 26.8294 25.2975 26.798C25.8298 26.7766 26.3554 26.7581 26.8796 26.6303C27.278 26.5332 27.5895 26.3804 27.8591 26.0522C28.0414 25.8299 28.1604 25.5835 28.2693 25.3217C28.5399 24.6726 28.729 24.0007 28.9261 23.3292C29.6827 20.7531 30.3642 18.1573 31.0606 15.5645L33.1403 7.78378L35.2094 0Z" fill="white"/>
</svg>
