<svg width="182" height="47" viewBox="0 0 182 47" fill="none" xmlns="http://www.w3.org/2000/svg">
<path d="M103.173 15.3199C103.173 9.83501 103.265 4.72837 103.541 0L89.4841 2.74245V4.0664L90.8622 4.25553C91.8728 4.3501 92.5159 4.72837 92.8834 5.29577C93.2509 5.95775 93.5265 6.90342 93.7102 8.32193C93.894 11.0644 94.0777 17.3058 93.9859 27.1408C93.9859 36.8813 93.894 43.0282 93.7102 45.3924C98.7632 46.5272 102.714 47 105.654 47C111.166 47 115.484 45.3924 118.608 42.0825C121.731 38.8672 123.385 34.328 123.385 28.7485C123.385 24.3038 122.191 20.6157 119.802 17.6841C117.413 14.7525 114.382 13.334 110.799 13.334C108.41 13.334 105.929 13.996 103.173 15.3199ZM103.449 44.4467C103.265 41.4205 103.081 32.3421 103.081 17.495C103.908 17.2113 105.011 17.0221 106.389 17.0221C108.594 17.0221 110.339 18.1569 111.625 20.5211C112.912 22.8853 113.555 25.7223 113.555 29.3159C113.555 33.7606 112.82 37.3541 111.35 40.3803C109.88 43.3119 108.042 44.8249 105.746 44.8249C105.011 44.6358 104.276 44.5412 103.449 44.4467ZM36.7491 0.945674H0V2.83702L1.92933 3.02616C3.39929 3.30986 4.40989 3.87726 5.053 4.72837C5.69611 5.67404 6.0636 7.18712 6.15548 9.26761C6.89046 19.4809 6.89046 29.0322 6.15548 37.827C5.97173 39.9074 5.60424 41.4205 5.053 42.3662C4.40989 43.3119 3.39929 43.8793 1.92933 44.0684L0 44.3521V46.2435H23.7032V44.3521L21.2226 44.163C19.7526 43.9738 18.742 43.3119 18.0989 42.4608C17.4558 41.5151 17.0883 40.002 16.9965 37.9215C16.7208 34.1388 16.5371 29.7887 16.5371 24.9658L21.4982 25.0604C24.1625 25.1549 26 27.2354 26.9187 31.3964H28.7562V15.9819H26.9187C26 20.0483 24.2544 22.1288 21.4982 22.2233L16.5371 22.3179C16.5371 13.8068 16.7208 7.75453 16.9965 4.0664H24.2544C29.3993 4.0664 32.8905 7.47083 34.9117 14.2797L37.1166 13.6177L36.7491 0.945674ZM32.4311 30.0724C32.4311 34.9899 33.8092 39.0563 36.4735 42.2716C39.1378 45.4869 43.0883 47 48.0495 47C53.0106 47 57.053 45.3924 59.9929 42.0825C62.9329 38.8672 64.311 34.8008 64.311 29.8833C64.311 24.9658 62.9329 20.8994 60.2685 17.6841C57.6042 14.4688 53.6537 12.9557 48.6926 12.9557C43.7314 12.9557 39.689 14.5634 36.7491 17.8732C33.8092 21.0885 32.4311 25.1549 32.4311 30.0724ZM52.9187 19.2917C54.0212 22.0342 54.4806 25.6278 54.4806 29.9779C54.4806 40.002 52.4594 44.9195 48.5088 44.9195C46.4876 44.9195 44.9258 43.501 43.8233 40.664C42.7208 37.827 42.2615 34.2334 42.2615 29.9779C42.2615 20.0483 44.2827 15.1308 48.2332 15.1308C50.2544 15.0362 51.8163 16.4547 52.9187 19.2917ZM130.551 42.2716C133.583 45.3924 137.442 47 142.035 47C144.883 47 147.364 46.4326 149.569 45.2032C151.774 44.0684 153.519 42.6499 154.714 40.9477L153.795 39.8129C151.774 41.4205 149.477 42.1771 146.813 42.1771C143.138 42.1771 140.29 40.9477 138.36 38.3944C136.339 35.841 135.42 32.6258 135.604 28.4648H155.265C155.265 23.9256 154.163 20.2374 151.866 17.3058C149.569 14.4688 146.353 13.0503 142.219 13.0503C137.074 13.0503 133.124 14.7525 130.276 18.0624C127.428 21.3722 126.049 25.4386 126.049 30.2616C126.049 35.1791 127.519 39.1509 130.551 42.2716ZM137.35 18.5352C138.36 16.2656 139.647 15.1308 141.392 15.1308C144.148 15.1308 145.526 18.7243 145.526 26.006L135.788 26.1952C135.88 23.3581 136.339 20.8048 137.35 18.5352ZM179.979 14.7525C177.498 13.6177 174.375 12.9557 170.608 12.9557C166.749 12.9557 163.717 13.996 161.42 15.9819C159.124 17.9678 157.929 20.4266 157.929 23.3581C157.929 25.9115 158.664 27.8974 160.042 29.3159C161.42 30.7344 163.625 31.9638 166.473 33.004C169.046 33.9497 170.883 34.8954 171.802 35.7465C172.721 36.6922 173.272 37.7324 173.272 39.1509C173.272 40.4748 172.813 41.7042 171.802 42.6499C170.883 43.6901 169.597 44.163 167.943 44.163C163.901 44.163 160.869 41.1368 158.756 35.0845L157.194 35.5573L157.562 45.0141C160.869 46.338 164.544 47 168.587 47C172.813 47 176.028 46.0543 178.417 44.0684C180.806 42.1771 182 39.4346 182 36.0302C182 33.7606 181.449 31.8692 180.254 30.4507C179.06 29.0322 177.131 27.8028 174.375 26.668C171.343 25.5332 169.23 24.493 168.127 23.5473C167.025 22.6016 166.473 21.4668 166.473 20.0483C166.473 18.6298 166.841 17.495 167.668 16.5493C168.495 15.6036 169.505 15.2254 170.792 15.2254C174.466 15.2254 177.131 17.9678 178.784 23.3581L180.346 22.8853L179.979 14.7525ZM91.5972 13.9014C90.3109 13.2394 88.9329 12.9557 87.371 12.9557C85.8092 12.9557 84.2473 13.6177 82.5018 14.9416C80.7562 16.2656 79.47 18.0624 78.4594 20.5211L78.5512 12.9557L64.5866 15.7928V17.1167L65.9647 17.2113C67.7102 17.4004 68.7208 18.8189 68.9046 21.3722C69.4558 27.2354 69.4558 33.4769 68.9046 40.0966C68.7208 42.6499 67.7102 43.9738 65.9647 44.2575L64.5866 44.4467V46.2435H84.0636V44.4467L81.583 44.2575C79.8375 44.0684 78.8269 42.6499 78.6431 40.0966C78.0919 34.6117 78 28.7485 78.4594 22.6962C79.0106 21.7505 80.2049 21.1831 82.0424 20.994C83.8799 20.8048 85.9929 21.3722 88.1979 22.6962L91.5972 13.9014Z" fill="white"/>
</svg>
