<svg width="57" height="44" viewBox="0 0 57 44" fill="none" xmlns="http://www.w3.org/2000/svg">
<path d="M57 31.4945H56.8938C56.2615 30.0186 55.5461 28.5778 54.7477 27.1766H55.4492C56.0031 28.1869 56.52 29.2103 57 30.2514V31.4945ZM0 6.02655C2.80615 5.13048 5.69077 4.49795 8.62615 4.13337L9.46154 0H16.2323L14.7138 3.75122C16.5369 3.74683 18.3554 3.84786 20.1646 4.05431L22.2738 0H29.7138L26.1692 5.12169C30.8723 6.28132 35.3492 8.14376 39.4292 10.6431C40.2415 11.1395 41.0308 11.6622 41.7969 12.2025H40.7215C36.2123 9.18039 31.1585 6.95777 25.8092 5.65319L21.4754 12.0531H18.3646V16.4105L10.6892 28.3274H8.23385V32.3115L0.369231 44H0.12L19.8785 4.61655C18.0923 4.41889 16.2923 4.32664 14.4969 4.33982L0.0553846 44H0M0 43.2664L8.48769 4.75711C5.61231 5.13926 2.78308 5.78936 0.0369231 6.68983H0" fill="white"/>
<path d="M23.4323 22.1076H27.5954V18.4047H23.4323V16.6389H28.5L28.2231 12.9272H19.1954V26.5177H23.4323V22.1076ZM41.0446 26.4782H45.6L47.6769 23.1443L49.8046 26.4826H54.4661L49.9708 19.4413L54.0185 12.9492H49.4031L47.6631 15.7692L45.8585 12.9404H41.1646L45.3323 19.4721L41.0446 26.4782ZM35.7462 26.6275C39.7754 26.6802 43.0892 23.623 43.1585 19.7884C42.9877 15.8878 39.5308 12.8569 35.4277 13.0151C31.5646 13.1688 28.4723 16.1118 28.3108 19.7884C28.3754 23.6274 31.6985 26.689 35.7323 26.6275H35.7462ZM34.4354 16.8058C34.44 16.1338 34.9985 15.5891 35.7 15.5584C36.4246 15.5715 37.0108 16.1206 37.0385 16.8058V22.5732C36.9877 23.2585 36.3646 23.7724 35.6446 23.7241C34.9938 23.6801 34.4815 23.1882 34.4354 22.5732V16.8058ZM24.3969 36.6645H28.7077V33.9455H24.3969V32.0962H29.6492V29.1532H21.0692V41.8608H29.7138V38.8036H24.3969V36.6645ZM42.9508 29.1532L41.2985 36.4273L39.6831 29.1532H36.8308L35.2938 36.5019L33.6923 29.1532H30.2908L33.3785 41.8608H36.48L37.9985 34.578L39.5631 41.8608H42.6L45.7015 29.1532H42.9508ZM54.2123 34.8943C53.3261 34.1168 52.3108 33.9104 51.1708 33.6029C49.8231 33.2427 49.08 33.2032 49.08 32.4564C49.1354 31.903 49.6523 31.4988 50.2338 31.5516C50.2385 31.5516 50.2431 31.5516 50.2431 31.5516C51.1015 31.4857 51.8862 32.026 52.0846 32.8254L54.9969 31.903C54.4569 29.9702 52.5738 28.6569 50.4738 28.7447C47.4323 28.7447 45.5723 30.5237 45.5723 32.9176C45.5723 34.9865 46.8369 36.0056 49.3708 36.726C50.8846 37.1608 51.6877 37.1257 51.6877 38.0525C51.6877 38.5401 51.2123 38.9222 50.4231 38.9222C49.38 39.0364 48.4292 38.3556 48.2492 37.3717L45.0554 38.0393C45.6 40.4508 47.4877 41.8828 50.3815 41.8828C51.8123 41.9179 53.1923 41.3777 54.18 40.3937C54.9092 39.6294 55.3108 38.6323 55.3015 37.5957C55.3615 36.5854 54.96 35.6015 54.2077 34.8899H54.2123V34.8943ZM16.9246 35.5312L12.9462 29.2103H9.08769V41.8696H12.4754V34.4726L17.0169 41.8521H20.2292V29.1928H16.9338L16.9246 35.5312Z" fill="white"/>
</svg>
