<svg width="109" height="41" viewBox="0 0 109 41" fill="none" xmlns="http://www.w3.org/2000/svg">
<path d="M0.248047 40.7099H11.4462V0H0.248047V40.7099Z" fill="white"/>
<path d="M35.5928 0L33.0266 19.0135L31.5102 8.74855C31.0436 5.48242 30.577 2.56624 30.2271 0.116647H15.9961V40.7099H25.5612V13.881L29.6438 40.7099H36.4094L40.2587 13.2978V40.7099H49.8238V0H35.5928Z" fill="white"/>
<path d="M54.3721 40.7099V0H71.9858C75.9518 0 79.2179 3.14948 79.2179 7.11548V33.3611C79.2179 37.3271 75.9518 40.4766 71.9858 40.4766H54.3721V40.7099ZM67.5532 7.34878C67.0866 7.11548 66.2701 6.99884 64.987 6.99884V33.5944C66.62 33.5944 67.6699 33.2445 68.0198 32.6612C68.3697 32.078 68.603 30.4449 68.603 27.6454V12.0147C68.603 10.1483 68.4864 8.98184 68.3697 8.51525C68.2531 7.93201 68.0198 7.58207 67.5532 7.34878Z" fill="white"/>
<path d="M100.448 10.265H101.147C105.23 10.265 108.496 13.4144 108.496 17.3804V33.7111C108.496 37.6771 105.23 40.8266 101.147 40.8266H100.448C97.998 40.8266 95.7817 39.6601 94.4986 37.7937L93.7987 40.2433H83.6504V0H94.4986V13.0645C95.8984 11.3148 97.998 10.265 100.448 10.265ZM98.1147 29.9784V20.4133C98.1147 18.7802 97.998 17.7304 97.7647 17.2638C97.5314 16.7972 96.7149 16.4473 96.1316 16.4473C95.5484 16.4473 94.6152 16.6806 94.3819 17.1472V20.4133V30.3283V33.4778C94.6152 33.9444 95.4318 34.1777 96.1316 34.1777C96.7149 34.1777 97.6481 33.9444 97.7647 33.4778C98.1147 33.0112 98.1147 31.8447 98.1147 29.9784Z" fill="white"/>
</svg>
