<svg width="78" height="44" viewBox="0 0 78 44" fill="none" xmlns="http://www.w3.org/2000/svg">
<path fill-rule="evenodd" clip-rule="evenodd" d="M0.378875 32.9789C2.43039 27.7009 8.11181 25.8382 13.16 29.021L35.0133 44H8.51206C2.99197 44 -1.34763 39.032 0.387261 32.9777" fill="white"/>
<path fill-rule="evenodd" clip-rule="evenodd" d="M0.378875 32.9789C2.43039 27.7009 8.11181 25.8382 13.16 29.021L35.0133 44H8.51206C2.99197 44 -1.34763 39.032 0.387261 32.9777" fill="white"/>
<path fill-rule="evenodd" clip-rule="evenodd" d="M22.47 15.6944L33.7516 41.0779L10.4787 25.3989C4.6396 21.5937 5.82367 15.0754 9.05687 12.2015C13.6331 8.39628 20.103 9.71168 22.47 15.6897" fill="white"/>
<path fill-rule="evenodd" clip-rule="evenodd" d="M38.0111 9.90076L33.9093 38.3109L22.2334 11.2984C19.7088 4.54523 25.3878 0.122217 29.1754 0.043528C33.515 -0.421558 38.9586 2.83874 38.0123 9.90193" fill="white"/>
<path fill-rule="evenodd" clip-rule="evenodd" d="M55.8427 11.2784L44.2445 38.3696L40.5382 13.9174C40.2215 10.1944 42.5885 10.1157 43.4571 9.41688C43.2982 8.87311 42.1142 8.87311 42.1142 8.87311H39.9061C39.6695 2.50755 44.7188 -0.287666 48.8219 0.023566C53.2391 0.178595 58.2085 5.22406 55.8427 11.2784Z" fill="white"/>
<path fill-rule="evenodd" clip-rule="evenodd" d="M67.6046 25.4471L44.3317 41.2048L55.2966 16.1324C58.6123 8.21424 66.3428 9.76687 69.1041 12.7946C72.1031 15.7425 72.9693 21.7205 67.6046 25.4471Z" fill="white"/>
<path fill-rule="evenodd" clip-rule="evenodd" d="M70.1256 43.9248H43.2241L65.0775 28.9434C70.4423 25.4494 76.1225 28.631 77.6208 33.2126C79.2063 38.3332 75.6493 43.9237 70.1292 43.9237" fill="white"/>
</svg>
