<svg width="75" height="74" viewBox="0 0 75 74" fill="none" xmlns="http://www.w3.org/2000/svg">
<path d="M3 68.6637V10.5958C3 6.40075 6.40075 3 10.5958 3H63.7663C67.9615 3 71.3621 6.40075 71.3621 10.5958V48.5747C71.3621 52.7699 67.9615 56.1705 63.7663 56.1705H21.8423C19.5348 56.1705 17.3525 57.2195 15.911 59.0212L7.05813 70.0871C5.71249 71.7692 3 70.8179 3 68.6637Z" stroke="white" stroke-width="6"/>
<path d="M31.4835 29.5852H23.8877C21.7902 29.5852 20.0898 27.8848 20.0898 25.7873V21.9894C20.0898 19.8919 21.7902 18.1915 23.8877 18.1915H27.6856C29.7832 18.1915 31.4835 19.8919 31.4835 21.9894V29.5852ZM31.4835 29.5852C31.4835 33.3831 27.6856 37.181 23.8877 40.9789" stroke="white" stroke-width="6" stroke-linecap="round"/>
<path d="M54.2716 29.5852H46.6758C44.5782 29.5852 42.8779 27.8848 42.8779 25.7873V21.9894C42.8779 19.8919 44.5782 18.1915 46.6758 18.1915H50.4737C52.5713 18.1915 54.2716 19.8919 54.2716 21.9894V29.5852ZM54.2716 29.5852C54.2716 33.3831 50.4737 37.181 46.6758 40.9789" stroke="white" stroke-width="6" stroke-linecap="round"/>
</svg>
